<svg xmlns="http://www.w3.org/2000/svg" xmlns:vectornator="http://vectornator.io" viewBox="0 0 1137 380" fill-rule="evenodd" clip-rule="evenodd" stroke-linecap="round" stroke-linejoin="round"><g vectornator:layerName="Untitled"><path fill="#ff6584" d="M845.318 81.846c0-29.998 24.318-54.315 54.315-54.315 29.998 0 54.316 24.317 54.316 54.315 0 29.997-24.318 54.315-54.316 54.315-29.997 0-54.315-24.318-54.315-54.315z"/><path fill="#3f3d56" d="M877 299h2v79h-2v-79z"/><path fill="#06c" d="M897.458 309.067c.127 27.625-19.308 50.109-19.308 50.109s-19.642-22.304-19.769-49.929c-.127-27.624 19.308-50.108 19.308-50.108s19.641 22.304 19.769 49.928z"/><path d="M897.458 309.067c.127 27.625-19.308 50.109-19.308 50.109s-19.642-22.304-19.769-49.929c-.127-27.624 19.308-50.108 19.308-50.108s19.641 22.304 19.769 49.928z" opacity=".1"/><path fill="#06c" d="M469.774 110.685c0-17.258 13.99-31.248 31.248-31.248 17.257 0 31.248 13.99 31.248 31.248 0 17.258-13.991 31.248-31.248 31.248-17.258 0-31.248-13.99-31.248-31.248zm-48.504 14.924c0-12.106 9.814-21.92 21.92-21.92 12.106 0 21.92 9.814 21.92 21.92 0 12.107-9.814 21.921-21.92 21.921-12.106 0-21.92-9.814-21.92-21.921zm-235 63c0-12.106 9.814-21.92 21.92-21.92 12.106 0 21.92 9.814 21.92 21.92 0 12.107-9.814 21.921-21.92 21.921-12.106 0-21.92-9.814-21.92-21.921zm638.794-80.495c0-17.257 13.99-31.248 31.248-31.248 17.258 0 31.248 13.991 31.248 31.248 0 17.258-13.99 31.248-31.248 31.248-17.258 0-31.248-13.99-31.248-31.248z" opacity=".4"/><path fill="#3f3d56" d="M56.63 369.215c1.695 6.262 7.497 10.14 7.497 10.14s3.055-6.274 1.361-12.536c-1.694-6.262-7.496-10.14-7.496-10.14s-3.055 6.275-1.361 12.536z"/><path fill="#06c" d="M59.12 367.87c4.648 4.525 5.216 11.48 5.216 11.48s-6.969-.38-11.617-4.905c-4.648-4.525-5.216-11.481-5.216-11.481s6.968.381 11.617 4.906z"/><path fill="#3f3d56" d="M668.631 369.215c1.694 6.262 7.496 10.14 7.496 10.14s3.055-6.274 1.361-12.536c-1.694-6.262-7.496-10.14-7.496-10.14s-3.055 6.275-1.361 12.536z"/><path fill="#06c" d="M671.12 367.87c4.648 4.525 5.216 11.48 5.216 11.48s-6.969-.38-11.617-4.905c-4.648-4.525-5.216-11.481-5.216-11.481s6.968.381 11.617 4.906z"/><path fill="#3f3d56" d="M68.137 322.146L64 315.251l38.614-33.098h99.294v9.653l-35.856 38.615-41.373 8.274-56.542-16.549z"/><path fill="#ccc" d="M219 301.576v-21.577h-13v6.804l-4.092-4.65-33.098 33.098-5.517 5.516-6.895 27.582 12.412 30.339h63.437V316.63L219 301.576z"/><path fill="#f2f2f2" d="M64 315.251h104.81v63.437H64v-63.437z"/><path fill="#3f3d56" d="M132.264 335.247h22.065v19.307h-22.065v-19.307z"/><path fill="#ccc" d="M103.993 334.558H123.3v44.13h-19.307v-44.13z"/><path fill="#3f3d56" d="M81.928 341.453v-6.895h-8.274v6.895h8.274zm-.69 5.516h-7.584v6.896h8.274v-6.896h-.69zm6.206-12.411h8.275v6.895h-8.275v-6.895zm0 12.411h8.275v6.896h-8.275v-6.896zm111.016-4.826v-6.896h-8.275v6.896h8.275zm-.69 5.516h-7.585v6.895h8.275v-6.895h-.69zm6.206-12.412h8.275v6.896h-8.275v-6.896zm0 12.412h8.275v6.895h-8.275v-6.895zm263.161-25.513L463 315.251l38.614-33.098h99.294v9.653l-35.856 38.615-41.373 8.274-56.542-16.549z"/><path fill="#ccc" d="M618 301.576v-21.577h-13v6.804l-4.092-4.65-33.098 33.098-5.517 5.516-6.895 27.582 12.412 30.339h63.437V316.63L618 301.576z"/><path fill="#f2f2f2" d="M463 315.251h104.81v63.437H463v-63.437z"/><path fill="#3f3d56" d="M531.264 335.247h22.066v19.307h-22.066v-19.307z"/><path fill="#ccc" d="M502.993 334.558H522.3v44.13h-19.307v-44.13z"/><path fill="#3f3d56" d="M480.928 341.453v-6.895h-8.274v6.895h8.274zm-.69 5.516h-7.584v6.896h8.274v-6.896h-.69zm6.206-12.411h8.275v6.895h-8.275v-6.895zm0 12.411h8.275v6.896h-8.275v-6.896zm111.016-4.826v-6.896h-8.275v6.896h8.275zm-.69 5.516h-7.585v6.895h8.275v-6.895h-.69zm6.206-12.412h8.275v6.896h-8.275v-6.896zm0 12.412h8.275v6.895h-8.275v-6.895zM280.515 206.304l-6.895-5.517 38.614-34.477h97.914v30.34l-63.437 42.752-66.196-33.098z"/><path fill="#ccc" d="M428 185.65v-18.651h-13v4.568l-4.852-5.257-31.719 34.477-12.411 8.275-19.245 140.603 29.023 29.023h67.45V202.166L428 185.65z"/><path fill="#f2f2f2" d="M273.62 200.787h104.809v177.901H273.62V200.787z"/><path fill="#ccc" d="M314.302 335.247h19.307v43.441h-19.307v-43.441z"/><path fill="#3f3d56" d="M293.616 347.659v-6.895h-8.274v6.895h8.274zm-.689 5.516h-7.585v6.896h8.274v-6.896h-.689zm6.205-12.411h8.275v6.895h-8.275v-6.895zm0 12.411h8.275v6.896h-8.275v-6.896zm51.026-5.516v-6.895h-8.274v6.895h8.274zm-.689 5.516h-7.585v6.896h8.274v-6.896h-.689zm6.206-12.411h8.274v6.895h-8.274v-6.895zm0 12.411h8.274v6.896h-8.274v-6.896zm52.404-143.424v-6.895h-8.274v6.895h8.274zm-.689 5.517h-7.585v6.895h8.274v-6.895h-.689zm6.206-12.412h8.274v6.895h-8.274v-6.895zm0 12.412h8.274v6.895h-8.274v-6.895zm-5.517 33.098v-6.896h-8.274v6.896h8.274zm-.689 5.516h-7.585v6.895h8.274v-6.895h-.689zm6.206-12.412h8.274v6.896h-8.274v-6.896zm0 12.412h8.274v6.895h-8.274v-6.895zm-5.517 33.098v-6.896h-8.274v6.896h8.274zm-.689 5.516h-7.585v6.895h8.274v-6.895h-.689zm6.206-12.412h8.274v6.896h-8.274v-6.896zm0 12.412h8.274v6.895h-8.274v-6.895zm-5.517 33.098v-6.896h-8.274v6.896h8.274zm-.689 5.516h-7.585v6.895h8.274v-6.895h-.689zm6.206-12.412h8.274v6.896h-8.274v-6.896zm0 12.412h8.274v6.895h-8.274v-6.895zM285.342 209.751h79.986V226.3h-79.986v-16.549zm0 33.098h79.986v16.549h-79.986v-16.549zm0 33.098h79.986v16.549h-79.986v-16.549zm0 33.098h79.986v16.549h-79.986v-16.549zm398.173-102.741l-6.895-5.517 38.614-34.477h97.914v30.34l-63.437 42.752-66.196-33.098z"/><path fill="#ccc" d="M831 185.65v-18.651h-13v4.568l-4.852-5.257-31.719 34.477-12.411 8.275-19.245 140.603 29.023 29.023h67.45V202.166L831 185.65z"/><path fill="#f2f2f2" d="M676.62 200.787h104.809v177.901H676.62V200.787z"/><path fill="#ccc" d="M717.302 335.247h19.307v43.441h-19.307v-43.441z"/><path fill="#3f3d56" d="M696.616 347.659v-6.895h-8.274v6.895h8.274zm-.689 5.516h-7.585v6.896h8.274v-6.896h-.689zm6.205-12.411h8.275v6.895h-8.275v-6.895zm0 12.411h8.275v6.896h-8.275v-6.896zm51.026-5.516v-6.895h-8.274v6.895h8.274zm-.689 5.516h-7.585v6.896h8.274v-6.896h-.689zm6.206-12.411h8.274v6.895h-8.274v-6.895zm0 12.411h8.274v6.896h-8.274v-6.896zm52.404-143.424v-6.895h-8.274v6.895h8.274zm-.689 5.517h-7.585v6.895h8.274v-6.895h-.689zm6.206-12.412h8.274v6.895h-8.274v-6.895zm0 12.412h8.274v6.895h-8.274v-6.895zm-5.517 33.098v-6.896h-8.274v6.896h8.274zm-.689 5.516h-7.585v6.895h8.274v-6.895h-.689zm6.206-12.412h8.274v6.896h-8.274v-6.896zm0 12.412h8.274v6.895h-8.274v-6.895zm-5.517 33.098v-6.896h-8.274v6.896h8.274zm-.689 5.516h-7.585v6.895h8.274v-6.895h-.689zm6.206-12.412h8.274v6.896h-8.274v-6.896zm0 12.412h8.274v6.895h-8.274v-6.895zm-5.517 33.098v-6.896h-8.274v6.896h8.274zm-.689 5.516h-7.585v6.895h8.274v-6.895h-.689zm6.206-12.412h8.274v6.896h-8.274v-6.896zm0 12.412h8.274v6.895h-8.274v-6.895zM688.342 209.751h79.986V226.3h-79.986v-16.549zm0 33.098h79.986v16.549h-79.986v-16.549zm0 33.098h79.986v16.549h-79.986v-16.549zm0 33.098h79.986v16.549h-79.986v-16.549zm216.173-102.741l-6.895-5.517 38.614-34.477h97.916v30.34l-63.439 42.752-66.196-33.098z"/><path fill="#ccc" d="M1052 185.65v-18.651h-13v4.568l-4.85-5.257-31.72 34.477-12.412 8.275-19.245 140.603 29.023 29.023h67.454V202.166L1052 185.65z"/><path fill="#f2f2f2" d="M897.62 200.787h104.81v177.901H897.62V200.787z"/><path fill="#ccc" d="M938.302 335.247h19.307v43.441h-19.307v-43.441z"/><path fill="#3f3d56" d="M917.616 347.659v-6.895h-8.274v6.895h8.274zm-.689 5.516h-7.585v6.896h8.274v-6.896h-.689zm6.205-12.411h8.275v6.895h-8.275v-6.895zm0 12.411h8.275v6.896h-8.275v-6.896zm51.026-5.516v-6.895h-8.274v6.895h8.274zm-.689 5.516h-7.585v6.896h8.274v-6.896h-.689zm6.206-12.411h8.274v6.895h-8.274v-6.895zm0 12.411h8.274v6.896h-8.274v-6.896zm52.405-143.424v-6.895h-8.28v6.895h8.28zm-.69 5.517h-7.59v6.895h8.28v-6.895h-.69zm6.21-12.412h8.27v6.895h-8.27v-6.895zm0 12.412h8.27v6.895h-8.27v-6.895zm-5.52 33.098v-6.896h-8.28v6.896h8.28zm-.69 5.516h-7.59v6.895h8.28v-6.895h-.69zm6.21-12.412h8.27v6.896h-8.27v-6.896zm0 12.412h8.27v6.895h-8.27v-6.895zm-5.52 33.098v-6.896h-8.28v6.896h8.28zm-.69 5.516h-7.59v6.895h8.28v-6.895h-.69zm6.21-12.412h8.27v6.896h-8.27v-6.896zm0 12.412h8.27v6.895h-8.27v-6.895zm-5.52 33.098v-6.896h-8.28v6.896h8.28zm-.69 5.516h-7.59v6.895h8.28v-6.895h-.69zm6.21-12.412h8.27v6.896h-8.27v-6.896zm0 12.412h8.27v6.895h-8.27v-6.895zM909.342 209.751h79.986V226.3h-79.986v-16.549zm0 33.098h79.986v16.549h-79.986v-16.549zm0 33.098h79.986v16.549h-79.986v-16.549zm0 33.098h79.986v16.549h-79.986v-16.549zM0 378h1137v2H0v-2zm252-79h2v79h-2v-79z"/><path fill="#06c" d="M272.458 309.067c.127 27.625-19.308 50.109-19.308 50.109s-19.642-22.304-19.769-49.929c-.127-27.624 19.308-50.108 19.308-50.108s19.641 22.304 19.769 49.928z"/><path fill="#3f3d56" d="M452 299h2v79h-2v-79z"/><path fill="#06c" d="M472.458 309.067c.127 27.625-19.308 50.109-19.308 50.109s-19.642-22.304-19.769-49.929c-.127-27.624 19.308-50.108 19.308-50.108s19.641 22.304 19.769 49.928z"/><path fill="#3f3d56" d="M851 299h2v79h-2v-79z"/><path fill="#06c" d="M871.458 309.067c.127 27.625-19.308 50.109-19.308 50.109s-19.642-22.304-19.769-49.929c-.127-27.624 19.308-50.108 19.308-50.108s19.641 22.304 19.769 49.928z"/></g></svg>