<svg clip-rule="evenodd" fill-rule="evenodd" stroke-linecap="round" stroke-linejoin="round" viewBox="0 0 4316.03 3831.13" xmlns="http://www.w3.org/2000/svg"><path d="m3439 3023.41.06-.13-.81-13.09 2.41-25.72-.19-1.53-1.22-3.1-23.13-50.46-1.74-2.47-7.13-8.69-8.41-8.06-2.9-2.25-2.91-1.72-4.15-2.63-3.32-2.37-5.4-3.94-.97-11.53-.25-13.22 5-17.5 3.81-10.81-.34 16.31 4.03-5.12 3.78-5.94 1.59-2.78 33.03-63.19.47-1.59-.62-4.76-6.78-42.09 10.81 5.16.22.03 2.44.4 2.84-.56 1.22-.87.06-.5-.41-.97-.71-1.38-1.26-2.18-2.56-3.78-2-2.5-1.44-1.63 16.44-16.37 2.63-1.88 2.78-1.97 6.87-4.19 7.19-3.96 3.72-1.41 2.06-.66 1.72-3.9 1.41-3.22 8.65-22.35 11.13-28.06 1.53-3.66.41-.84 1.03-1.9 9.93-14.85 19.88-24.06 18.47-23.16 1.41-2.22.81-1.37.15-7.41-.25-.93-3.03-9.32-1.84-5.53-1.88-5.25-2.28-6.37-1.78-5.57-.87-4.78-.19-5.65.19-2.44 11.62-47.31 6.66-42.82-1.28-16.81-25.85-25.97-26.75 13.75-2.22.57-5.47-.35-23.74-3.44-3.88-1.93-2.22-1.6-5.06-4.94-1-1.12-2.03-.91-25.94-7.9-5.16-.69-2.75-.34-1.72.4-14.18 4.35-18.06 19.21-1.19 2.19-2.38 4.97-.62 1.5-.07 2 .32 2.53.25 2-3.78 8.72-1.63 2.69-17.09 27.28-1.19.16-7.44-3.69-8.78-3.25-27.03.5-11.94.84-1.47 1.47-.81 2.97-.22 3.06-.06 2.75-1.16 2.72-2.37 1.78-2.91 1.53-3.5 1.07-4.65-.41-20.32-3.91-7.75-1.56-4.68-1.28-2.79-1.13-1.59-1.71-1.12-2.69-.57-3.25-1.25-10.13.25-2.12-.4-1.47-27.5-16.13-24.88-9.06-13.47-1.53-2.12-1.94-16.53-18.43-2.06-5.63-5.85-11.62-14.31-26.57-1.53-2.65-1.97-2.31-2.06-1.88-6.66-4.66-1.47-.81-1.87-.56-1.82-.85-2.72-2-7.78-12.56.57-1.78 9.31-17.03 1.12-.72 21-9.44 2.13-.06 2 .56 6.22.16 6.43-1.44.57-.09 5.31-6.44 1.44-2.5 18.37-33.34 9.63-23.06 1.03-2.57.56-2.62 6.22-32.91-.06-9.25-.03-1-12.72-2.28-7.13-1.03-9.15-1.22-3.19-.5-1.41-1.03-2.62-3.31 1-8.94m-95.22 1074.53.31-1.78-2.72-.81-2.78 5.03 1.88-.57 2.87-1.53zm-5.19 2.44-21.06 6.47-1.75.4-1.25-.06-1.31-.06-5.85.87 1.31 2.19 2.6 1.09 3.4-.09 3.26-.72 10.06-3.97 8.18-3.37 1.85-1.72zm368.28-204-.41.96m-1222.02 202.54-2.54 1.62s-.9.53-.9.53l-1.25 1.25-.35 1.25.72 1.82v3.03l.16 2.69 1.62 2.87 2.16.37 1.06-1.81.56-1.59.54-.72 2.68-.72.54-2.34-.19-4.13-1.41-1.78-1.62-1.81zm6.81 10.93-1.28.19-1.79 1.63s-1.43 1.06-1.43 1.06l.53 1.25 1.28 1.63 1.41 1.43 1.28 1.25.34 1.78 1.97 1.82 1.44.72-.53-1.82-1.63-1.59v-1.44l.72-1.09-.53-1.25-1.44-.88v-2.15zm454.03 18.69-5.6 5.6-1 5.59-2.53 3.53-3.56 2.53 1.53 4.06-4.56 3.07-4.06 1 1 4.06-.5 7.09-.5 2.04-4.06-2.04-3.57-2.03-1 2.57-3.56 2-7.09-2.54-2.54-2.53-2.03-3.56-4.06-2-3.56 2-2.03-3.03-2.53-3.03-3.03-1.53-3.07 3.03-5.56.53-3.56 1.5-5.07.53-1.03-4.06-2.03-3.07 2.03-5.06-.5-2.03-2.03-1.53-2.03-1-2.03 3.53s1.54 4.57-1.5 2.03c-3.04-2.53-4.06-5.06-4.06-5.06l-2.56-.5.53 3.03v1.53l-2.03 1-3.07 1.53-.5 2.03h-2.53l1 3.04v6.09 2.03l-6.06 3.06-2.03-3.06 1 3.06 1.53 4.04 1 3.56 1.53 4.56 1.53 5.09 6.6 1.5 5.06 1.03 2.53 4.07 2.53 8.09v4.06l2.03 5.6-7.59 2.03-11.66 5.56-7.62 2.03-9.63 2.03-7.62 2.53-1.53 1.54-3.04 1-2.03-3.54-3.56 1.54h-6.06l-5.6-3.07-5.59-4.06-5.06-5.06-3.56-1.03-1.5-6.6-2.54-.5h-4.56l-1.03 2.04s-.5 3.56-.5 3.56v4.56l2.53 5.56 3.56 5.1 2.54 5.06 3.03 4.56v6.1l-.5 5.59 10.15 2.53 24.85 1 8.12 3.06 8.63 5.56 8.62 4.07 15.22 3.03 17.75 4.59 8.13 2.53 9.12 2.04-2.53-2.04-11.16-3.06-17.78-5.56-13.69-5.1-8.62-2.53-5.56-2.03-1.04-2.53h6.1l10.66 2.53 9.12 2.03 12.69 3.07 5.06 3.53 6.09-4.07s.01-2.03-2.53-2.03c-2.53 0-6.59-.5-6.59-.5l-1.03-4.06-5.07-2.53-6.59 2.03-5.06-1-.53-7.12s5.09.52 7.12 1.03c2.03.5 6.6 3.05 8.63 4.06s6.06 2.52 8.09 3.53c2.03 1.02 4.58 2.03 7.63 2.03 3.04 0 10.65-1 10.65-1s4.57-.5 6.6-.5 7.09 2.53 7.09 2.53l3.56 6.1 4.57 4.03 5.56 1.53 6.59 3.56 8.13 4.07 9.12 5.56 11.16 3.56s6.62 5.08 9.15 6.09c2.54 1.02 6.07 3.04 8.1 4.57 2.03 1.52 7.62 6.59 7.62 6.59s5.57 5.56 7.6 5.56 6.09 2.03 6.09 2.03 3.06 3.06 3.06 1.04c0-2.03 3.04-5.6.5-5.6-2.53 0-4.56 0-4.56 0s-3.55-.49-4.56-3.03c-1.02-2.54-4.56-7.09-4.56-7.09l-4.6-.54-6.59-1.5-4.57-3.56s1.03-5.06-1-5.06c-2.02 0-5.06-4.06-5.06-4.06l-4.59-6.1-2.53-2.53-.5-7.62-2.53-9.63s.5-3.55.5-6.09 5.06-1 5.06-1l1.53-9.66v-4.06l-6.09-1-8.63 4.56-7.59 1.53-6.6-2.56s-6.09.53-6.09-1.5-.5-4.06-.5-4.06h-4.56l-5.1 2.03-3.03 5.06 5.07 3.07 3.06 3.03-.53 1.53-6.07 3.03h-3.56l-3.56-4.06-3.03-4.07-4.07-5.56-2.53-.53-6.09-2-1.53 2.53-6.06-3.06-3.07-2.53v-4.57l4.57-.5 3.56-1.53 6.59-2.53 4.56-2.03 1.54-1.53 6.09 3.06 4.03 1.5 2.56-1.5-1.53-3.56-4.56-2.53.5-4.06 6.59-2.03 4.57-1.54 13.71-1h8.1l3.56 4.57 2.03 8.62-1.53 2.53-7.09 1.53-3.57 1.53-2.53 4.57 2.53 3.03 3.57 1.53 1.53 2.53h3.53l2.03-1.53 2.03-3.53-2.03-1.53v-4.07l3.06 1.04 5.07-1.54 3.03-3.06 2.03-4.03 8.12-3.56 1-5.06 4.57-6.1-1.5-2.53-12.19-3.56-5.06 1-12.19-.5-6.1 1.03s-5.05-2.54-7.59-4.06-4.06-2.54-4.06-2.53l-5.59 2.53-6.07-1.03 4.07-5.57s1.5-3.56 3.53-3.56 8.62-3.56 8.62-3.56l2.53-3.53 2.56-5.6 3.04-2.53 2.53-1 4.06-7.62 2.53-2.03 2.03-7.1-.5-4.56-2.03-6.59zm-74.06 1.03-4.07 2.04s-1.53 3.56-1.53 3.56l2.03 4.03h3.03l3.07-1.5 1.53-2.53v-5.6zm140 20.28-4.07.54 3.07 6.06s3.03.53 3.03.53l5.06 1-2.03-5.59zm65.68 27.91s-.25 3.56-.25 3.56l-2.53 5.07-4.06.5-5.31-.5 2.53 5.59s3.3 2.77 4.31 3.28c1.02.51 3.8 5.34 4.81 5.85 1.02.5 4.32-2.54 4.32-2.54l2.28-5.09 6.34-4.31-2.28-5.82-3.81-3.56zm135.47 5.59-6.59 3.29c.51.5-.77-.75-1.78-1.25-1.02-.51-.25 1.26-.25 2.28v2.53l-1.53.25-1 3.03s.49 3.29 1 4.56c.5 1.27 1.79 1.8 3.31 2.81 1.52 1.02 4.56.5 4.56.5 0 .01 3.03-5.57 3.03-6.84s3.3-2.8 4.32-3.31c1.01-.51 1.28-3.28 1.28-3.28l-1.28-3.57zm-94.62.26-2.03 3.28s-2.54 2.28-2.54 2.28c.01 0 1.27 1.77 2.29 2.28 1.01.51 1.53 2.03 1.53 2.03l3.03-.5 2.28-1.53.78 1.03.75 3.81 2.28-1.78-.25-1.78-2.03-2.03-2.28-2.53-.5-4.56zm-370.03 2.12-.19 3.78-.72 2.13-2.31.71-.19 2.35-.37 3.06-3.04.35v-1.97l-.37-3.94-1.41-1.97-2.15-.38-3.25.38-4.47.88-2.53 1.24-3.94 3.6-3.75 2.87-3.41.53-5.4-.71-2.69-.53-2.85.71-1.43 2.35h-2l-2.69-.56-.72 1.28-1.59 3.56-1.97 1.62-2.16-.9-3.59-.88s-1.6-1.09-2.5-1.09-2.35-.53-2.35-.53c.01 0-1.62-1.63-2.34-1.63s-2.12 1.28-2.12 1.28l.15 1.97-2.5 1.97-2.34 2.31-2.69 2-3.03.54-1.44-.19 2.16-1.44.72-2.69-1.44-3.06s-3.07-2.69-3.97-2.69-2.12.72-2.12.72l1.4 2.16 1.1 2.15-1.97 1.78-1.97 1.1s-5.75 1.79-6.47 1.97-9.5 0-9.5 0h-5.22s-8.97-.17-9.69-.35c-.71-.18-5-.18-5-.18l-2.68-1.44-4.5-.19-3.22 1.97-5.22-.53-2.5.91-1.78 3.93-2.35.38-3.78-1.28-4.12 1.62-2.85 1.25s.35 1.44.35 1.44l2.34 1.62 3.03 2.69 4.13 2.31 5.56.72 3.97 1.1 6.09.18 11.28-1.62 11.13-2.16 9.69-1.44 8.78-1.96h6.81l12.03-2.16 15.97-1.25 14.88-1.44 15.59-.53 9.34-.53 4.47-1.63 3.41-1.96 2-2.88 5.37-2.5 2.32-1.81 2.68-1.25 1.1 1.25 5.03.53.72-1.97.68-3.22 1.29-.34.71-4.13-.9-5.22-2.35-2.15-2.87-.53-3.41-.53-4.12.18-.72-1.09zm60.59 5.22-2.53 1.03-2.56 2.53-3.54 1s-2.03 2.53-2.03 2.53h3.03 4.57l2.03 2.03 3.56 2.57 5.56 2.03 2.04 4.56 3.06.5 4.06-3.56 2.03-1.5 4.56-3.56-1.03-1.04-5.56 1.04-4.06 3.03h-3.56l-4.57-3.53-2.53-4.07zm29.91 6.59c-.51.51.53 2.03 2.56 2.03s3.03 2.54 3.03 2.54l5.06 1.53-1-4.07-6.09-2.03zm-255.35 11.19-4.56 4.56-5.06 6.6-3.57 7.12s-.94-2.24-2.34-3.19c-1.39-.95-3.23-.62-4.25-.87-2.03-.51-8.13 3.55-10.15 4.06-2.03.51-7.6 3.03-7.6 3.03s-9.65.5-12.19.5c-2.53 0-5.06 1.03-5.06 1.03s-3.56 7.6-3.56 9.63-3.53 2.05-5.56 3.06c-2.03 1.02 0 9.13 0 9.13l5.56 7.59s4.06 1.66 4.06 1.66l16.13.62 16.96-2 20.07-11.31 4.43-.38 2.04-1.12-.78-8.25-2.41-7.38-1.13-8.34.5-6.09 1.54-6.6zm539.41 10.34-4.31 3.22-2.85 1.44h-3.25-3.93l-1.79 2.53.35 4.28-2.16 2.53-2.87 2.88-5 1.78s-5.76 1.08-7.19.72c-1.44-.36-3.22 2.16-3.22 2.16l3.22 3.21s2.5 1.46 3.94 1.82c1.43.35.72 4.28.72 4.28-.01 0 1.09 3.22 1.81 5.37.72 2.16.34 3.6.34 3.6l3.97.37 4.28-.72 8.63-1.09 3.59-5.72 4.66-.72 2.15-3.97-1.09-6.43-.34-1.44 4.28 2.15 3.96 1.44 2.5-2.87.72-6.47-2.87-1.07-6.81-.37 1.81-4.28 3.22-4.31 2.15-3.6h-5.03zm116.06 17.41.16 1.97 2-.38 1.25 1.1-1.25 1.44-2.16.71-1.28 1.07v3.25l1.09 2.12 1.97-.72.38-1.78.87-.91 2.16.91 3.41.72-.35-2.5-.72-.72-1.09-2.53s0-1.79 0-2.69c0-.89-1.25-.53-1.25-.53l-3.59-.34s-1.6-.19-1.6-.19zm-.72 18.66s-2.15 1.06-2.15 1.06l-1.82 1.09.38 1.25 2.15 1.07h2.69l1.78-.72-.34-1.97zm6.1 4.12-1.63.53s-3.75 1.63-3.75 1.63l-1.44.15 2.32.72 1.81 2.16 1.59 3.06 2.53-.9 1.79-1.97-1.26-3.6zm-12.72.44-1.5.5s-1.66 1.03-1.66 1.03l-1.66 1.75-.62 2.03s-.12 1.52-.12 2.03c-.01.51-.79 1.28-.79 1.28l-1.5.88-1.28 1.15-1.4 1.26-1.25.9-1.16 1 .66 1.16 1.75-.25 1.4-1.41 1.41-1.53 1.25-.87 1.91-1.79 1.03-1.4.87-1 1.66-2.16 1.65-1.53.88-1-.25-1.66zm-143.44 6.59-6.59 2.03c.25-1.01 1.03 5.33 1.03 6.35 0 1.01 4.81-1.53 4.81-1.53l3.28-3.29zm72.75 6.78-1.63.16-2.31 1.44-.53 2.34.69 2.88.19 1.96-.19 2.69-1.25 1.63-1.6 1.78-1.81 1.25-5-.19-1.09.72-.19 2.34s-.34 3.07-.34 3.78v2.69l.19 3.41s.35 1.44.71 2.16c.36.71 2.5 1.43 2.5 1.43l2.35.53 2.68 1.97 1.97.19s1.26 1.6 2.16 2.31c.9.72 1.25 1.1 1.25 1.1l2.69 1.78 2.87-.53s-.02 1.6.16 2.5c.18.89 1.09.72 1.09.72l.19-2.16 1.59-1.06 3.25-.19 1.78-.53.72-2.69 1.07-.72 1.43-1.97.57-1.97-.91-1.09-2.16-.19-2.15-.72-2.88.72s-1.43-.15-1.43-.15l-1.26.53-.71.72h-1.07l-1.43-1.97-2.16-1.25-1.44-1.1-.19-3.21v-3.26l-.15-2.68-.38-1.78-1.06-.38-.72-1.78.72-1.25s.88.55 1.59.91c.72.35.72 0 .72 0l.57-2.35v-1.62-1.6l1.25-1.25 1.06-1.62.19-1.44-.72-1.97zm56.87 2.35-2.03.62-2.15.53-2.78 1.13-1.91 1.41-2.28 1.65-1.28 1.38s.65.62.65.62l1.25-.87 1.41-.63 1.38-1.03 1.15-.88 2.78-.9 1.78-.75 2.53-1.25zm-127.59 7.87-7.59.75s-3.82 2.53-3.82 2.53l-3.03 3.32-4.31 2.28-4.59 1.78-3.03 2.78 1.28 1.78 4.31 3.03 6.06 4.81 3.81 2.57s3.8 3.02 4.82 3.53c1.01.51 3.31 2.53 3.31 2.53l2.53-1 1.53-3.06v-3.53l1.25-3.07 3.32-2.53s0-3.05 0-4.06c-.01-1.01-.77-2.27-1.54-3.28-.76-1.02 1.04-6.1 1.04-6.1v-3.03l-1.29-2.03zm-74.91 16.5-4.68 5.03 1.09 4.29s4.29 2.17 5.72 2.53c1.43.35 4.31 5 4.31 5l4.32 3.97 5.37-1.82 5.37-1.44 1.44-4.65-1.44-5.75-.71 4.31-5.72 2.88-8.63-3.6-3.22-8.25zm167.32 5.19-2.32.37-1.62 2.69s-1.44 2.5-1.44 2.5l-.87 2.35s-1.64 1.43-2.53 1.96c-.9.54-.88 1.26-.88 1.26l.16 1.24 3.25 1.63 3.56-.34s2.17-1.47 3.06-2c.9-.54 2.88-1.78 2.88-1.79l1.06-4.65-1.25-1.81zm7.37 14.19-2.34.15s-3.6 2-4.31 2.53c-.72.54-2.85 1.79-2.85 1.79l-1.62 2.53s.9 1.59.9 1.59l1.07 1.44s1.25 1.98 1.96 2.15c.72.18 1.97 2.88 1.97 2.88s.01 1.44.19 2.16c.18.71.38 2.68.38 2.68l.72 1.78 2.5-.9 1.43-.53 1.97.53 2.5.72.72-.16 1.44-.72 1.09-.72 2.31-.9.72-.91 2.69-1.25 1.44-.72 1.81-.15 1.78-.57 1.78-2.31.56-2.34.35-1.25 1.78-1.25.91-1.1 2.15.38-1.25-2.35-2.34-2.31-2.88-1.62-3.4-.19-2.32-.72c.01 0-.53 1.44-1.96 1.44-1.44 0-1.82 1.25-1.82 1.25l-2.5-1.06s-2.15.34-2.87.34-3.41-.87-3.41-.87zm476.38-328 .62 2.59 25.38 17.97 24.06 10.81 8.81 3.16 61.88 7.69 16.72 4.5 5.15 7.96 11.85 17.82 2.9 4.25 6.44 7.75 3.19 2.62 1.19.88 2.09 1 2 1.06 5.84 3.41 3.97 2.75 15.94 12.59 10.97 9.16 2.28 2.06 1 2.87 1.44 2.04 9.53 8.65 2 1.53 7.34 5.1 2.69 1.78.31.15 7.88 5.38 11.81 8.41 3.03 2.31.56.47 4.32 4.28 89.46 90.56.85.91.4.47 1.44 2.28 1.22 2.59 1.28 3.19-.65 3.84-.41 1.69-2.88 2.97 28.22 17.72 27.63 14.84.78.41 3.19 2.59 1.53 1.34 6 5.69.9.91 22.69 22.84 19.94 23.6 1.34 2.62 7.57 27.69 5.93 20.53 3.66 9.5 6.25 14.31 6.37-2.31 4.19 8.4 1 2.29 6.25 15.34-.78 1.91-.72 1.28-.56.65-21.59 19.88-.57.47-1.47 1.25-1.46.78-1.63.09-1.09-.4-.47-.25-5.53-3.53v-4.26l.5-2.78 1.43-1.09-4.12-.97-17.78 17.28-.16 1.66-.41 10.5 3.57 20 21.72-3.31 2.43.4 10.69 5.22.85 1.38-.04 3.97-3.12 1.21-17.88 6.72 3.22 7.44 3.94 3.75 2.22-.78 20.47-7.72 4.56-18.38 21.69.1.15.22 3.29 7.62.15.41 3.16 7.91-11.44 4.93-5.87 15-.1.41.06 1.19 9.5 17.06-10.15 29.75.03.06 25.06-1.12 9.19-3.78 4.06-1.44 49.16 8.5 12.78 15.9.56.85-12-9.69-6.69 1.5-1.78.41-2.68.71-2.47 1.07-4.53 3.75-29.16 25.87-1.91 2.19-23.37-10.59-2.53-3.19-3.44-2.5-1.09-.63-25.66-7.25-45.91-9.46-20.65-.57-24.32.72-32.72 11.28-.4.19-.5.53-.38 1.44.07 2.72 1.97 16.75 2.18 5.9 6 12 3.03.04 3.25-.38 20.69-2.59 21.13-5.57 17.25-3.62 3.81 2.47 26.87 15.12 42.97 23.88 7.25 3.72 10.53 4.87 3.04 1.03 12.96 3.35 7.72 1.09 55.78 5.97 10.25-.84 19.82-1.97 43-2.72 12.5-2.35 23.93-6.22.57-.21-.57-3.82-1.03-4.43-1.03-4.25.41-1.85 6.28-9.44 1.87-2.34 3.19-2.34 12.03-7.6 2.38-1.37 4.22-1.03 4.03-.56 3.34-.66 2.31-1.06 1.19-1.44 4.38-13.22 1.97-8.97.84-7.94-.1-8.65.72-4.75.66-1.53 2.81-1 3.72-1.25 7.94-1.94 8.56-1.91 5-2.62 75.09-48.1 29.91-21.68 2.13-8.69-8.1-6.56-30.84-23.35-3.5-2.37-4.72-1.57-4.22-1.18-3.9-.56-4.19-.32-15-8.22-5.75-3.78-26-17.59-23.88-19.75-24.06-20.72-6.75-5.94-2.91-3.22-1.43-2.06-3.75-5.75-.47-.81-9.16-14-16.41-24.44-4.59-6.34-3.15-2.88-3.82-3-18.28-14.12-7.69-12.28-2.9-7.28-1.41-3.97.31-1.44 1.5-5.59.82-2.32 1.15-1.84 3.97-3.19 4.09-3.25.88-1.03.25-1.63-.81-5.18-3.94-24.03-.94-2.66-16.53-23.34-1.37-1.85-3.13-2.65-2.19-1.6-8.75-6.37-3.62-2.56-12.13-8.57-12.84-8.97-5.22-6.96-7.34-10.19-7.19-12.72-5.25-13.75-2.66-7.22-1.65-5.78-1.53-4-4.25-5.91-5.29-4.75-8.84-6.03-10.16-6.03-2.53-1.5-4.21-2.16-8.5-4.09-25.41-2.41-18.35-5.31-3.06-1.5-.81-.41-1.31-1.21-16.41-16.07-10.69.97-25.03.88-1.56-.6-29.41-17.15-2.4-2.85-.19-.18-.72-1.03 4.66-.76 2.25-.28 2.87-.5-6.5-6.53-12.69-11.09-5.71-2.41-14.6-5.69-3.19-1.15-23.18-13.35-9.69-6.09-12.06-8.65-5.25-4.54-4.28-3.84-6.82-6.66-1.96-2.22-3.35-3.78-7.03-7.28-5.03-4.87-7.69-6.85-4.09-3.59-9.22-6.25-11.06-7.31-11.69 4.62-10.28-14.19-5.38-11.9-1.81-2.34-14.03-1.32-9.84-.9-6.57-.28-4.37.74-4.82 1.38-5.84 1-33.44 4.19-34.75 2.93-10.75-2.74-.18.09-53.88-21.53-18.97-13.25m-264.34-881.88 1.37-2.65-.4-15.6-1.5-2.03-.56-.75-1.07-2.97.88-2.03 12.06-10.94 3.19-2.4 3.53-1.03 19.53-.72 3.12 1.4 3.5 1.35 3.07.4 2.75-1 39.5-19.62 9-6.94.53-2.31-.22-3.53.72-3.66 1.12-2.56 24.85-33.25.34-.38 1.84-2.15 4.88-1 2.69.12 3.9 2.03 2.25 1.03 2.72 1.04 55.6-25.44 8.5-5.44 2.93-3.56 4.79-9.97.65-1.16.31-.65 5.63-8.1 3-3.56 8.41-8.62 17.18-6.28 13.1-4.88 2.93-1.75 11.53-14.13 6.6-17.53 6.97-3.71 11.56-7.69 41.91-34.85 5.09-10.56 9.47-11.25 10.87-9.34 2.5-.47 3.57.53 4.18.87 3.78-.84 11.66-8.9 1.22-1.6 6.97-10.44 6.65-12.56 5.54-11.06 1.65-4.84 4.47-34.66.25-10.03.85-3.97 8.15-9.19 2.5-1.59 2.53-1.22 2-1.03 5.72-6.19 5.25-8.94.94-3.97-.22-4.15-1.19-18.56-1.15-10.35-29.6-18.91-15.9-9.68-1.69-.94-10.13-2-7.71 1.16-3.19-1.63-14.41-6.12-10.09 4-4.63 2.81-9.09 5-4.31 2.09-13.75 6.22-6.82 2.59-3.9-2-4.97-2.03-5.88-1.53-38.34-9.5-4.5.16-8.16 1.78 1.85-6.75-3.16-2.09-2.59-1.22-8.56 2.15-2.26 1.5-2.78 2.6-2.34 2.59-2 2.5-3.53 3-6.81 4.97-13.63 4.63-16.81-5.26-4.03-3.31-.97-4.37.47-17.88 1.03-4.09-9.97-36.38-19.5-13.62-3.94-2.72-20.37-12.5-18.75-4.78-11 .56-3.5.16-10.78 3.59.65-21-1.56-2.28h-2l-17.12 3.22-4.97 2.03-4.19 1.78-2.38 1.63-2.31 2.37-2.84 2.19-5.16.12-16.31-.87-13-1.5-5.13-2.03-4-1.78-5.31-2.66-1.34-.69-.41-.9-.03-.38.16-.84.18-.63.85-.62 1.06-.41 2.25-1.34 1.06-.69-5.78-8.59-3.72-1.97-30.03-8.28-9.5-1.04-5.47-.5-58.84-5.15-23.6 4.25-9.15 5 .62 1.25 1.63 4.97 6.03 19.09.66 2.19-.88 2.12-2.87 7-1.32 2.82-2.28.78-40.87 12.97-18.5 9.59-34.19-21.38-3.03-5.62-1.63-3.75.63-3.94 1.62-3 1.32-1.87 3.59-.69 3.25-.84 5.81-3.32 18.56-46.21 1.44-10-1.5-1.76-14.22-10.43-12.22-4.78h-2.18l-3.75-3.19-10.31-12.28-20.29-35.75-2.15-5.97-11-38.63-3.16-26.53-.22-3.15-.18-4.5-.32-4.88-1-9.15-15.72-31.5-4.56-7-1.69-2.16-2.09 1.94-3.81 4.03-3.75.09-2.22-1.16-2.63-4.06-1.59-3.12-3.22-12.69-2.75-12.28 39.97-3.41 33.53-2.97 3.44-6.65 3.12-7.19 2.29-4.44 1.46-2 24.6-14.4-1.06-16.22.5-2.69 5.87-9.91 1.16-1.68 20.37-15.72 10.34.87 12.69 1.19 3.47 1.03 4.22.1 3.72-.88 1.5-1.31 16.81-30 5.72-20.57-13.13-43.31-7.15-10.65-4.63-6.35-3.53-4.22 2.25-16.18 2.1-3.29 1.5-1.46 24.09-9.41 2.06-.44 9.13-.4 20 .25 3.62.46 13.16 3.88 1.75 2.16 2.09 1.18 2.6.32 5.43-1.35 15.19-8.31 2.97-2.38 10.94-10.9 1.47-1.53.87-2.97.56-2.1 2.75-.24 16.16-2.349 14.59-2.469 10.79-2.531 48.18-20.312 2.94-1.813 1.09-2.094-.71-5.5-1.6-12.937 11.28-4.313 40.75-5.718 6.44-2.25 31.06-21.969 16.57-14.406 6.46-7.313 2.57-.594 6.5-1.062 4.09.438 1.53.437 2.03 1.75 1.63.5 3.59-2.906 3.47-4.188 4.03-5.406 7.28-10.781 8.16-14.938 3.78-20.187 4.28-25.563 1.19-17.437 3.28-3.719 33.16-31.906 14.4-10.188 1.13.032 1.81.75 1.87 2.656 1.94-.188 50.16-8.594 48.16-10.75 29.59-8 2.47-.343 3 1.187 11.34 6.313 1.03 2.062.16 4.094 78.94 16.937 2.25.438 12.25-8.781 2.28-2.219 3.69-4.156 7.28-8.406 13.65-44.876-.06-1.687-2.31-8.813-4.94-12.781-1.53-20.25 8.84-9.25 21.47-24.343 3.38-4.126 1.5-1.874 1.53-2.094 1.31-2.938.25-1.812-7.78-6.75-1.19-1-5.56-26.75-4.69-27.156.56-2.344 2.07-6.875 1.5-1.438 3.84-2.562 12.06-7.281 3.13-1.657 3.72-1.219 3.5-.656 3.56-1.062 3.47-2.938 1.06-2.687 1.47-20.875-.97-4.719-.31-1.25-8.1-29.594-5.18 2.781-4.44 3.782-4.47.531-5.94.469-42.9-1.344-19.41-2.469-17.66-4.375-48.93-19.656-49.97-23.5-1.07-.469-22.74-12.312-4.85-5.063-1.87-2.594-4.41-1.906-15.97-3.094-65.28-12.093-13.62-1.563-13.19 6.125-2.66 1.688-5.15 6.375-1.97 3.437.15 4.719-17.31 6.906h-.09l-4.69-.562-8.59-1.375-6.04-1.125-1.81-.688-1.25-1.937.41-2.281 1.62-1.688 1.19-1.25-.34-2.781-2.66-14.031-2.03-4-12.41-15.719-3.12-1.375-3.6-.656-34.09-5.126-15.97-1.312-6.66 2.531-3.46 3.563-7.25 5.344-5.88 3.562-30.03 6.469-7.62 2.406-4.6-1.187-7.47-3.469-4.34-4.031-3.66-5.657-13.78-30.25-2.78-10.406-4.37-10.344-1.54-3.219-9.93.844-4.63.469-31.72 13.406-32.56 16.094-4 .531-60.44-5.562-28.09 4.437-35.91.094-4.97-1-40.53-11.375-6.65-1.938-2.63-3.812v-3.781l.91-6.188 1.4-9.031 1.19-6 1.34-4.844-45.96-17.5-2.75-1-7.75-2.625-40.69-8.843-2.13 3.687-9.28 16.156 3.22 5.938 2.41 5.937 1.28 6.844-.72 4.625-18.72-9.844m116.19 3015.219v.03 4.34l.25 3.66 8 .25 10.03 2.13 3.59 2.15v7.91l4.32 7.16 6.43 2.15 4.32 7.19-1.44 11.47v5.75l.72 6.47 9.31 3.56 2.16 10.06 2.15 7.16 5.75 3.59 5.03 5.03 2.85 8.6v4.31l-2.13 5.75-2.15 7.15 3.56 1.44 2.87 1.44v5.75l-5 1.44-4.31 1.43-3.59-2.87v5.72h2.15l5.75-3.56 5 2.84v5.75l-3.56 5.03-7.19.72h-7.18l-8.6-2.16h-8.62l-7.16-.71h-2.15l1.43 9.31-1.43 5.03-2.16 7.19-5.03 9.31-3.41 2.66-3.81-1.54-3.56-.75-4.57 3.03-4.06 2.04-4.56 4.06-5.06 2.78-6.1 2.28s-5.57 1.01-6.84.25-5.83-3.27-6.84-3.78c-1.02-.51-3.82-3.31-3.82-3.31l-3.81-1.5-6.59.25-5.57.5-7.37-2.28-4.31-.5-5.57.25-7.62-.54-1.25-2.53-3.56 1.53-4.07 5.6-3.53 4.56.75 2.78 5.85 1s2.79.02 4.06.78 6.07 2.28 7.59 2.28c1.53 0 4.82 3.04 4.82 3.04l2.53 7.37 1.53 3.28 7.62 1.28 5.32.5 3.31-2.28s1.25-.72 1.25-.72l32.15-4.75 19.35-1.68 37.15.56 1.6.31 22.06-15.78 2.78-2 28.22-17.78 16.84-8.19 3.41-1.31 1.97-.72 3.87-.19 1.47.56 11.13-9.65 2.37-2.09 2.88-3.41 21.12-32.06 1.1-1.79-.88-3.65-7.78-7.88-8.06-5.37-2.13-6.81-1.06-3.66 1.09.03 3.25.5 2.78.47 1.26.31 2.71 1.66 5.22 3.84 1.44 1.25 2 2.13 2.47 2.59 1.37 1.72.66 1.31 1.25 2.6 3.72 5.78 1.75.9 9.03.72 2.31.06 2-.03 21.91-1.53 4.78-.97 42.94-22.15 3.72-1.97 7.78-4.47 9.78-7.34 6.25-5.54 6.47-4.4 4.34-2.34 13.78-7.32 21.35-11.31 4.03-1.31 27.06.72 22.62 1.18 2.82-.53 1.75-.81 1.84-2.09.94-1.57.78-5.43 1.03.31 2.1-6.97-.16-.72-2.56-4.03-45.82-30.19-18.68-22.84-10.6-13.19-13.53-33.22-.06-.4-.16-16.94.03-.66.41-3.84 1.72-5.13 10.72-20.97.72-1.34 1.25-1.72.4-.47.56-.25 3.82-1.62 9.81-14.41.97-1.4 2.03-2.47 9.41-9.32 3.06-12.68-8.38-5.72-5.06-4.13-6.25-8.18 1.63-2.66 4.31-4.75 25.19-9.19 1.78-.34 1.59 1.78 1.91 2.34 2.53 3.1.81 1.09.88 1.06 2.09 2.54 1.09 1.15 3.63-2.56 1.44-1.19-9.16-19.37-.34-.57-7.41-10.93-6.5-8.6-.56-.72-1.1-1.28-.62-.59-.56-.53-.72-.47-1.22-.81-1.44-.91-.47-.28-1.53-.84-1.12-.44-2.13-.78-.56-.19-.78-.03-.35.06-.37-.03-.81-.31-1.94-.97-.78-.47-.94-.56 1.59-2.35 11.38 6.57 2.78 1.74 1.06.76 4.25 3.21.56.53.72.85 1.66 1.91.88 1.09.62.91.72 1 .66.87 6.31 9.66 6.69 10.65.81 1.44 8.4 13 12.03 18.25 2.63 3.44 59.34 11.75.97-.03 1.06-.25 1.97-.54.47-.24.63-.41.4-.31.32-.41.09-.37.16-.63m-465.07 176.21-.09-.59m2.42.43-.21.08m-.58.26-1.41.61m239.22-1146.03-.87 1.08m-.19.23-.47.59m.66-.82-.19.23m-2043.63-1880.874-4.94 3.063-7.28 11.531-1.03 23.969-.16 17.219 7.35 13.687 23.06 23.844 6.03 4.875 3.28 2.437 3.06 1.875 2.94 1.719-7.65 4.687-47.03 7.876-17.32-9.157-17.37-7.969-48.03 15.657-16.82 7.75-3.81 2.312-17.968 16.688-3.062 4.125-.719 1.968-1.312 5.063-.313 2.531-.031.063-1.437 2.156-3.876 2.75-13.062 7.594-5.562 1.812-61.844 21.531-5.532 2.032-14.781 7.75-8.25 4.344-13.625 6.812-11.844 5.719 2.688 11.719.156 2.968-.156 4.032-1.969 12.75-2.219 9.187-.156.437 33.219 36.75 3.594 3.313 19.281 14.344 3.406 1.656 2.969.937 2.406 1.532 7.625 11.594 14.969 43-.063 2-.156 2.312-8.062 7.125-7.875 2.687-4.531-.843-15.469-3.938-11.125-11.031-2.844-5.562-4.094-4.094-14.75-4.875-9.625-2.657-33.875-3.374-2.875 1.031-4.125 2.281-1.5 1.156-2.218 1.688-21.719 24.906-3.313 5.312-1.906 3.376-1.969.562-3.781-1.656-6.281-3.594-6.969-6.656-13.406-11.875-4.969-2.281-17.844-6.376-44.156-8.281-7.531 3.438-18.656 12.093-10.407 7.469-20.531 17.907-7.625 6.624-10.75 10.438-.719 1.469-13.187-2.907-15.688-18.593-.469-.094-1.656 1.469-7.437 15.406-1.063 2.719-.062 3.75-.032 5.187.563 4.688 1.844 9.25-19.094 17.562-14.937 5.782-4.219 2.124-21.344 18.032-3.437 3.406-3.313 3.969-2.719 3.687-8.344 13-1.124 2.813.25 3.375-6.688 14.594-6.812 8.593-2.5 4.094-1.376 2.375.469 2.062 5.031 20.626 11.25 20.562v.031l-8.874.625-3.532 2.156-7.75 5.75-4.5 3.844-23.375 22.282-6.812 12.75-1.625 3.312-22.344 28.594-11.875 5.5-2.031.531-19.656-9.219-5.032-2.531 3.438 18.437.625 3.282.031.094 1.344 3.624 2.25 3.25 1.937 2.594 5.125 9.032 1.188 4.968 5.344 35.064-35 30.69-1.969 1.59-1.5.22-21.657 5.47-32.312 25.44-26.812-10.29-3.688-1.43 5.031 7.28 4.031 22.87.719 7.44.563 6.44-4.313 7.09-3.656 5.97-17.437 26.78-6.094 2.97-27.969 7.25-3.031.22-25.25-2.78-18.782-4.63-5.062-3.03-2.125-1.09-2.531.53-3.25 1.84-.469.28-2.406 1.82-2.313 2.18-9.656 13.6-17.812 1.93-1.5.63-30.313 23.56 3.0625 4.07 3.0625 4.03 2.6562 4.47 1.9376 6.18 1.0622 3.63-.156 2.78-17.5938 64.5-7.4062 5.22-10.2188 6.72-37.3124 22.84-2.125 1.22-1.1563 1.56-17.40625 36.25-5.03125 15.6.03125.06 1.5625 4.03v.06l1.625 3.13-2.4375 8.65 7.46875 34.22 1.4375 1.16.5625.47 1.5 1.18 1.6562.54 5.1563.4 14.3437 24.66 5.0313 13.81 1.4375 3.41 1.1562 2.28 4.7188 7.53 1.6562 1.84 1.4688-.65 1.75-2.25 1.2188-1.5 6.2812-1.13 2.0625-.22.7813.38.9687.5 7.3125 3.84 1.5.91 13.3438 10.25 8.1874 10.37 5.1563 7.57 8.4685 7.65 6.032 1.06 2.374-1.28 2.407-1.31 2.375-.47 2.281.88 5.687 3.65 2.813 2 9.313 13.53-.157.25 11.157 3.41 2.874-.91 3.344-1.56 13.844-6.87 14.438-7.22 3.906-2 32.5-.38 10.75 12.78 5.468 8.32-.156 4.75-.875 5.43-1.5 2.53-1.219 1.16-1.937 1.31-2.594.85-2.156.03-1.625 1.41-3.719 5.37-6.969 16.91.969 1.03 3.657 3.69 5.343 5.18 3.531 3 2.688 1.38 2.656.87 30.188-4.72 21.031-3.31 2.563-.28 3.562-.31 2.625-.13 2.969.13 29.375 3.65 13.437 2.35-5.218 4.97-5.407 24.62-.656 2.97.25 3.37.219 2.22 14.968 52.57 6.813 14.78 17.187 27.59 21.782 17.88 2.25.9 12.094 2.6 21.968 10.34 35.219 17.62 6.844 9.07 4.781 6.5.062 1.12-.156 2.85-1.062 3.37-.563 1.22-1.187 2.41-1.125 4.43 4.781 24.72 2.562 5.53 2.719 3 1.531 1.91.563 2.66-.094 2.56-1 3.41-1.219 3.84-2.562 7.56.469 11.16-2.375.97-3.156 1.37-2.594 2-.782 1.03-.031.07-1.062 1.59-.719 1.15-3.594 8.38-.468 3.75 1.374 2.31 2.032 2.03 1.875 1.41 1.437 3.44-.156.94-.156 1.28-.563 1.25-6.812 13.93-.469.88-3.75 5.25-3 3-10.781 32.91-.657 1.74-2.812 3.76-29.688 26.56-3.874 2.4-16.5 9.28-27.407 14.5-18.25 9.41-13.656 6.78-1.875.07-7.75-1.19-1.969-.47-2.843-.66-26 30.53-2.844 7.75-3.282 10.54-4.093 10.81-4.813 8.81-4.375 6.31-9.312 12.5-3.063 3.75-5.437 1.32-11.094-.19-9 28-3.5 23.34.031 5.09-.625 2.44-1.719.88-3.374 1.18-3.876 1-7.468 1.66 3.531 5.13 4.781 6.03 1.782 1.84 8.656 9.1.875.81 1.406.75.969.5 2.718 1.75 1.907 1.31 1.437 1.81 2.563 3.5 11.031 15.53.031.07.969 1.53 1.25 2.5 3.031 15.87v1.78l-.812 2.19-.657 1.41-2.468 3.47 7.937 24.53.219 4.53 1.906 14.19 13.563 25.59 12.062 18 .719 8.75-1.219 20.22-5.437 30.78-6.344 63.66-3.594 18.62.063.41.031.31 9.156 29.91.219.68.094.25.031.07.781 1.18 5 1.91 12.375 3.78 2.094.35 1.781.21 2.031.1 5.657-.78 3.406-.69 10.156-3.66 1.407-.75 29.937-1.65 2 .81 3.906 3.65.031 7.72 1.688 4.6.781 1.37 17.531 27.85 29.219 20.4 2.031 1.28 11.532 5.35 9.968 4.62 5.844.91 1.969-.53 2.031-.75 13.875-.32 20.125 1.22 3.125.47 2.063.72.812.41 1.313.68 4.125 2.22 3.968 2.32 1.5.87 2.219 2.47 2.281 3 2.688 6.56.156.56v1.44l-3.125 5.25-2 3.22-1.219 1.56.219 1.88.063.15 12.5 24.63 8.281 11.69 1.687 1.78 4.938 5 1.781.84 18.188 2.88-2.094 2-10.437 8.72-1.376.81-13.968 5.62-.469-.03-3.656-.84-4.25-.69-6 1.19-1.438 2 25.313 27.97 18.75 13.09 10.625 5.19 4.469 1.97 8.937 8.84 10.906 38.25 2.094 9.35-.719.87-.844.87-2.937-.37-.406-.06-3.531.15-3.032 1.25-1.25 1.35-.062.03-7.5 11.47.844 2.5 3.312 1.94 49.938 8.53 7.593 16.68 17.688 32.19.312 3.88-.656 4.22-1.469 4.28-10.468 12.75-1.563 1.21-2.563.76-4.281.56-3.812-.5 6.375 12 4.781 23.84.063.28 14.062 12.53 2.281.85 3.625-.66 1-.37 1.656-1.29 7.469-12.93.219-1.07-1.188-1.43-1.093-1.13-1.125-1.37.406-1.57 1-.5 2 .35.031.03 2.407 1.56 1.75 1.75 1.437 1.66.844 1.62 1.156 3.6 1.719 5.72.156 1.15 11 9.63 14.25-5 3.25-.97 2.406.9 2.563 2.38 2.156 3.19.906 3 .657 2.53 4.906 11.28 8.718 15.19 1.126.72 3.468.37 10.656-.28 1.532-.34.937-.6 1.875-1.22 1.063-.96.719-.82.218-2.31-.812-2.06-2.219-2.91-3.094-2.62-2.562-1.91-.719-1.53.625-.78 1.094-.75 9.687-6.25 1.094-.44.969-.06.625.25-4.344-14.25-.969-3.32-2.812-13.71 1.843-1.97 11.376-11.47 17.312-13.03 1.812 3 .969 2.25 2.438 4.9 2 3.03 8.593 9.57 1.563 1.53 1.406 1.12 8.781 6.04 2.782 1.12 11.344 4.47 4.812-.85 1.938-1.59.843-.75 19.094 10.63 25.156 20.65 15.75-1.75 1.031.35 1.219 1.12.657.6.718.71 4.188 8.35.062 1.09-4 10.16-2.656 5.5 19.844 11.81.562 2.06-.625 7.47-6.562 8-3.438 3.41 19.125 22.62 2.532 1.88 2.531 2.84 3.562 4.19 3.031 4.19.313 2-.156 1.9-.25.66 19.937 5.53 1.719.37 2.313-.21 8.687-3.75 1.687-.88 2.876-2.09.874-.72 9.563-8.13 34.185-32.56 8.19-7.47 10.44-15.72 22.97-23.75 1.34-.75 1.09-.62 11.32-11 6.68-7.66.16-.15 8.22-10.41 1.53-2.34 1.19-2.35.47-1.25 11.4-15 14.56-17.5 3-2.43 5.76 1.4 5.93 6.63.41 1.12-.66 1.47-.56.75 7.62 10.78.97 1.38 1.91 2.15 2.59 2.72 5.97 5.72 2.66 2.53 1.66 1.28.4.31 2.47-1.65 9.28-6.63 1.94-1.46.87-.66 1.35-1.44 2.19-2.47 3.4-4.28 2.94-4.19 7.87-10.18 7-8.28 2.41-2.47 1.91-1.69 14.53-10.84 2.78-1.66 9.03-8.84-.03-.07-.16-.22-7.12-8.03 7.59-8.62 1.66-1.88 14.9-9.37 5.82-2.41 7.12-2.44 1.97.5 3.5 1.22 4.34 3.88 13.72 12.68 22.66 11.97 8.72-.53 10.68 5.22h.07l.31.25-.62 9.69-11.13 28.62-1.28 1.91-1.88 1.41-.4.96-.07 1.35 3.63 23.84 4.41 9.22.56.69.25.28 13.75 9.25 4.4.5 2.07-.69 25.65-14.18v-.88-1.5l.07-19.53 15.56-19.06 1.12.59 5.79.81 4.21-.47 13.69-10 10.31-10.93-1.4-8.72-.63-4.03-.03-.19-.5-1.56.31-7.53 48.13-9.26 17.47-2.68 30.59 8.72 10.16 9.46 2.53 9.04-17.72 35.03 4.62 3 49.41 32.25.47 2.09-2.19 9.13 4.38 2.09 3.69.72h.56l17.87-10.78 30.22-12.07 10.66 5.16 11.69-18.5 3.12-5.59 2.31 3.03 6.1 11.31 1.47 5.69.87 5.19 1.78 3.59 6.09 11.28 3.5 6.34 2.1 3.72 33.5-10.72 8.75-2.93 1.56-.53 22.94-3.57-5.85-21.4-1.59-.97-1.34-2.41-.25-20.47 1.34-28.96 9.22-11.54 8.06-4.12 9.85 1.75 1.59 2 1.94 2.44.81 1.03 2 3.15 2.47 3.85.47.81.25.44 3.72 6.87 20.62 18.13 13.69 7.28 1.03 2.25h-.34l-1-2.25-18.78 16.15-3.26 3.16.5 2.19 4.88 10.56 1.81 3.59 1.72 2.69 3.47-.19 1.66-.4 1.15-.31.25-.07 1.1-.31.4-8.03 13.22-4.81-7.66 9.65-1.34.85-1.56.97-2.81 3.25-1.66.62-3.25 1.22-3.78-.09-1.25 2.18-1.09 5.07.81 1.47 5.84 3.65 2.22.85 1.31.53 3.53.97 2.97.28 1.63.18 4.06-.72 1.72-.18 4.69-.38 2.56.38 1.53.25 3.75 1.06.06.03 4.6 2.47.72.5 5.09 3.44 4.28 3.15 3.16 2.41.47 2.97-1.07 5.12-3.87 8.88-2.5 3.16-1.53.81-1.22.5-3.38 1.06-3-.72-3.12-2.81-2.57-2.88-1.56-3.93-.62-3.94-.94-4.72-1.41-3.06-4-1.19-1.68.28-4.07 1.16-.56.15-2.53.75-2.31 3.04-9.85 21.96-.9 3.44 1.56 3.63 16.94 32.15 1.5 1.94.22.31 2.59 1.63 3.56.78 4.19-1.1 3.03-2.71 1.03-2.69.31-3.78.57-3.28.81-3.41 1.38-2.78.31-.38 1.69-1.15.93-.25 1.69-.41 2.84 2.28 1.91 3.03.94 3.88.09 3.94-1.25 3.09-3 2.66-2.69 1.43-21.31 10.29-.06 21.71 18.15 38.5 24.54 20.57 28.43 17.18-1.62 18.07-8.31 15.37-7.07 22.56-.25 2.63.88 3.22 2.53 3.15 7.03 6.04 4.5 3.71 5.41 2.66 5.03 1.75 3.59 1.19 3.25.9 3.06 1.47 2.85 2 .91 2.41 1.09 19.44-1.09 2.37-2.6 1.81-3.37 1.88-4.53 2.12-4.07 2.29-3.5 2.56-2.65 4.47-.85 5.97-.25 1.78-.15 4.72.5 5.18 1.65 4.38 1.38 1.18 2.75 1.19 1.69.63 1.34.5 1.69.56 1.4.47 3-.16 1.88-.97 3.03-1.9 2-2.16.72-2.25.56-1.62.06-3.1.03-4.06-.47-4.06-.15-2.97 1.09-1.91 9.1-9.34 5.22-4.35 4.96-4.06 4.66-2.9 3.31-1.6 1.03-.15 1.72-.16 2.69.72 1.31 1.41.47.5-.47 3.71-1.9 4.32-.25 1.06-.94 3.72-.72 4.03-.81 6.22-.06 6.12 1.81 4.97 3.72 3.56 4.21 2.63 3.26 1.28 3.31 1.78 6.59 3.84 4.44 2.94 3.28 3.19 1.31 3.22.57 2.97-1.88 29.56-5.81 37.28-.41 2.44.03.06 1.25 3 3.22 3 18.72 16.94 1.78.31 1.34-.25 1.69-.31 1.07-2.53.87-3.41.97-2.75 1.47-1.69 3.72-.84 3.28.41 3.59 1.84 1.75 3.28.81 3.44-.5 3.37-1.81 6.35-1.34 4.03-1.81 3.72-2.07 3.9-2.22 2.69-1.97 1.47-1.65.41-2.09.25-3.72-.82-3.35-.9-1.19.25-.46.06-.91 1.22-1.06 2.78.09 3.56 2.1 4.19 2.71 2.69 20.19 18.47 3.72 2.75 1.94.62 1 .31 1.34-.71 2.88-2.47 5.34-4.29 3.75-.46 3.03.31 2.97 1.22 2.69 2.81 3.75 7 1.12 3.12 3.97 11.57.41 5.31-9.13 15.88-2.25 4.84-.15.4-1.75 5.82-.32 1.56-.09 1.66v3l.19 5.22.06 1.5.06.78.78 2.56 1.57 4.4.56 1.22.97 1.75.72 1.16.81 1.06 1.4 1.16.47.34.72.31.66.07.62-.03 1.07-.32 1.93-.56 1.22-.56 3.6-1.88 3.43-2.22 1.85-1.24 3.34-1.94 5.85-2.82 2.09-.87 1.37-.31 1.78-.32 1.82-.18h1.37l2.22.06 2.53.16 2.35.34 1.56.31 2.12.63.97.25 5.35 2.75 1.59 1.18.78.66.75.78.47.91.31 1.25.07.56-.04.81-.15.85-.19.62 7.22 17.1 30.66 23.46 2.09 1.5 4.15 2.97 4.1-20.62 3.75-13.75 3-9.16 2.22-5.84 3.15-7.69 6.78-12.87 1.85-2.78 1.47-2.07 1.78-2.09 2.31-2.5 13.91-14.16 2.47-2.28 14.06-12.56 5.78-4.94 13.34-10.87 10.41-8.32 12.44-10.12 11-9 4.72-4.5 9.18-8.81 2.35-2.88 4.19-5.16 4.31-6.59 2.19-5 .71-2.59.41-2.16.09-1.22-1-3.78-1.84-1.94-6.19-2.03-.65-2.59s-10.35-3.78-10.35-3.78l-3.56-2.56.53 4.56-4.06 6.62-10.16 7.6-9.62 9.12-8.13 6.1-13.18 4.06-24.35 10.15-13.22 6.07-13.19.53-4.56 1-.5-5.6-6.09-4.56h-5.06l-5.6-2.53-3.03-4.06 9.13-14.69 2.03-6.09 1.53-4.07-4.56 2.03-5.1 7.6-7.59 11.16-5.6 3.56-5.06 4.06-1.03 7.09-.5 6.1-4.06 4.06-17.25 5.06-10.13 2.53-10.15-8.09-3.03-6.09-.53-7.1 2.03-7.12h3.56l4.06-7.1-8.12 4.07-.5-4.57 1.53-4.56.5-4.06 4.06-4.06 2.53-7.6-1.03-2.03h-6.06l-4.56-1.53-5.1-9.66-1.53-11.15-3.53-12.16-6.1-6.09-8.12-9.66 5.59-1.5 5.57-9.66 6.09 1.54h12.19l4.56 6.59 6.09 2.03 1.5-5.59-1-6.6-4.56-5.06-6.09-1-7.1-1.03 8.13-3.56 6.06-1 7.13-3.56 4.03 2.03h4.06l4.06-.5v-3.03l-2.03-5.1-2.03-6.59 6.09-2.53 6.1-3.04 1.53-2.03-2.53-5.09-2.56-3.03 3.56-2.53 2.53-2.53-.5-5.1-2.53-7.09 2.53-5.06 4.06-3.07h5.06l6.1 2.57 4.56 1.5 3.03 5.59 3.06 1.53 2.54 3.53 2.53 1.03-2.03-6.09.5-2.53-1.5-5.1-1.54-5.06 3.57-5.06 4.06 1.5 4.56-1.5h2.53l4.56-2.03h3.04v4.56l2.53 4.56 1.03 3.57h2.03l2.53-4.07 3.56 2.03 1 4.04 2.04 4.59 6.09 6.59 4.56-2.03 3.56 2.53 5.07 1 3.03-.5-1.5-3.03 2.03-4.06 2.53-7.09 2.03-6.6-.53-5.59-3.53-9.13v-2.53l5.06-3.56 1.53-4.06h-3.06l-5.56 4.06-5.6 1.53-6.06 4.06-5.59 3.04-4.06-1.54-2.04-3.03 2.04-2.03-2.04-3.56-2.03-6.1-.5-6.06 2.03-3.56 3.04-1.53-3.54-4.56-1.53-2.03-1.53-1-.5 4.06-2.53 3.03-1.53 2.03-7.1 3.56h-4.56l1-4.56 3.06-7.62 4.57-2.04 4.56 1.04 3.03-3.57v-5.06l3.06-5.59 5.57-2.04 4.56-3.03.53-5.09 2.03-2.53 1-2.53-3.56-3.03-4.03-2.57-2.56-8.09.53-2.53 1.5-3.06-2.53-3.57 2.53-1.5 6.59-3.06h4.06l7.63-2.03 4.06-.5 4.03-2.53 2.03-.5-.5-4.56-1.53-3.57 6.6-5.56 2.03-3.06 1.53 3.06-1 6.06-2.56 4.07 1.53 2.53 3.56-3.53 3.53.5-1.5 3.56 5.06-1.53.5 4.56 2.53 2.03 1.03-3.03 2.54 2.53-2.04 2.53-1 2.53 1 4.57 5.07 2.03 1.03 2.53-1.03 3.56v5.06l-1.5 3.57 1.5 4.06 1.03 4.56s2.03 2.53 0 2.53-3.03 0-3.03 0l-3.07 2.53.5 4.07.54 6.09-.54 6.09.54 4.57 4.03-7.13 3.06.53 4.06.5 5.07 3.57 1.53-1.04-1.53-4.06-2.54-5.06.5-2.03 2.54-1.03 3.56 3.56 2.03 5.59 2.53 4.57 3.56-2.04 4.06.5v-2.53-3.03l-2.56-.53-2.53-1.5.5-5.09 2.56-1.5 3.03-5.6 2.04-4.06 4.56-5.06 5.06-2.53 5.1 1 3.03-6.6 5.06.5 5.59 4.07 7.63 5.06 3.03-4.22 2.16-2.16 3.93-4.5 4.13-1.25 2.34-2.5 1.25-7 .91-4.12 2.68 1.78 1.44-1.25-1.62-2.88 2.87-2.31 1.44-5.56.53-3.06 7.72 2.68 8.78 1.44 5.03 1.81 1.78-.37-3.06-1.63 2.72-.34 2.13.19 2.87 1.59 2.87 1.44 2.5.53 2.16-2.13-.53-2.87s-1.6-2.35-1.78-3.25-1.09-3.22-1.09-3.22l1.43-.72 2.16-.53s0-1.42-.72-1.78-2.34-1.44-2.34-1.44l-1.6-3.06 1.44-3.94.53-3.06v-4.66-3.75l-.37-4.84-.35-3.78.72-2.69 4.31-1.25s1.08 1.25 2.16 1.97 3.56 3.75 3.56 3.75l1.81.72 3.6.56 3.03-.19 3.22-.9 1.81-2.31.19-2.35.53-2.34 1.06-1.6 1.63.16.34 2.53 1.25 1.06 1.1-.53 1.24 1.07.38 2.15 1.59 2.35 1.63 2.5 2.87 1.81 3 1.56 1 2.78.79 2.41-.13 4.68.75 2.04.75 2.28 1.53.37 6.1.16 4.81.25 9.12-.66 1.16-1.37 2.65-1.91 2.16-1.28 1.41.5s.24 1.03 1 1.03h3.43s.76-.52.63-1.03.25-2.53.25-2.53 1.28-1.27 1.53-1.91c.26-.63 1.66-2.53 1.66-2.53s0-1.27.12-2.03c.13-.76 1.25-2.91 1.25-2.91l.38-2.15 1.9-1.28 2.54-1.38 1.03-1.28 2.15-.38h4.32l3.15.76 3.56.4 2.03.13 1.91 2.78s1.66 2.77 1.78 3.28c.13.51.63 4.59.63 4.59v6.97l.12 6.59.25 6.6 1.03 6.34 1.75 4.19 1.53 2.78 2.79 3.56 1.15 2.41.25 3.66.63 4.96.65 3.29 1.88 2.28 4.06 1.65 3.81 1.28 4.69 1.76 3.19 1.28 5 .31 2.69-.53 2.34-2.88 2.66-.72.5 2.54 1.78 3.56 2.03 1.28 5.06-.78 3.53-.25 6.35 1.28 3.31 1 3.81 4.06s3.55 1.53 4.81 1.78c1.27.26 6.6 1.78 6.6 1.78s1.25-.25 3.28-.25 8.39-.53 9.41-.53c1.01 0 3.53-.5 3.53-.5l4.31-3.28 4.56-2.56h5.1c-.01 0 1.77 2.8 2.03 3.81.25 1.02 1.78 3.06 1.78 3.06s3.01.25 4.03.25c1.01 0 3.06-3.56 3.06-3.56s1.26-1.52 2.53-2.03 3.57-2.28 3.57-2.28l3.03-2.78s3.54 1.77 4.56 2.03c1.01.25 4.56.77 4.56 1.78s.78 4.03.78 4.03l1.25 4.56 2.78 4.6 6.1-1.78 2.81-1.04 4.03 1.29 4.31-1.29 3.82-1.78 5.84.28 1.53 1 1.75-4.06 3.56-1.5 9.13 1.75 4.31 1.78 4.81.25 4.6 2.28 2 2.29 4.06-.25 5.09-2.28h4.07l2.78 3.06h4.81 6.84l5.6 1.25s2.01.01 3.28-.5 5.34-3.57 5.34-3.57l3.53.79 2.28 2.28 3.82 2.53 1.28 3.81v4.31l2.78 4.32 2.78 1.5 4.06-2.28 2.04 2.28 2.78 1.53 3.06.75 2.03 2.28 1.78 1.03 4.81-1.28 3.82-1.5h2.78l2.53 3.78 2.53 3.06 2.03 1.25 5.35-1.75 4.31-.28 3.03 1.03 3.81 1.25 5.56 2.81 1.03 2.79.26 6.34 1.53 4.31 2.78.75 4.31.78 2.78-1.03h3.56l2.54 2.03 3.56 1.79 4.81 1.53s1.76-.26 3.03 0c1.27.25 7.63 2.03 7.63 2.03l8.87 1.25 10.41 1.53 5.56 1 4.81 2.28s1.79 3.81 3.32 3.81c1.52 0 4.06 2.03 4.06 2.03l3.28 3.82s2.8 2.27 3.81 2.53c1.02.25 3.05.75 4.06.75 1.02 0 2.03-2.28 2.03-2.28l3.04 3.06 4.56 1.25 5.09 1.78 4.03 1.03.78 3.53 4.32.78.5 3.29 2.53 4.56 2.03 1.78 4.06 1 4.06-.75 5.07-.25 3.06 1 2.78 3.31 3.03 1.78s3.05-.26 3.82-1.28c.76-1.01 4.81-2.03 4.81-2.03l3.81.5 3.31-2.78 1.75-.75.53-3.81h2.79l1.78 1.53 1.78 2.78h6.31 8.63l3.56-2.59.28-.13-.13-.79m-116.06-3014.429-17.15 3.969-33.13-3.781-2.16.531-21.15 22.25-10.72 11.906-21.84 19.094-11.72 7.625-9.63.656-4.56.063-7.66-2.25-7-2.25-4.69-2.532-3.09-2-5.87-4.281-5.85-4.312-33.84-7.75-46.35-4.844-8.03-.594-45.43 2.563-8.19 4.094-19.03 11.812-14.19 10.562-13.06-1.468.87-8.406-1.37-9.907-.47-2.062-14.56-16.719-23.69-22.781-39.47-6.313-4.16.594-7.93.594-5.44.344-4.53-1.719-4.91-1.938-37.06-18.937-2.28-1.438-25.94-27.5-1.44-7.625-.62-2.562-6.5-.969-34.38 1.281-75.87-8.812-4.85-1.125-3.47-1.094-2.46-2.219-6.1-4.219-3.81-2.093-21.87-5.813-3.29 2.406-4.84 2.563-3.25-1.219-17.91-7.156-3-1.375-4.81-2.719-4.09-3.562-4.07-4.438-5.84-1.937-12.53-2.969-3.25-.719-2.78-.437-47.94 9.312-10.66 4.875-14.18 1.469-20.53 6.594-4.13 1.031-4.06-.063-25.44-4.218-24.22-6.5-11.53-11.063-2.5-1.562-2.37-.938-12.32 1.094-10.09 3.094-30.37-3.969-3.79-1.188-3.65.438-16.85 4.75-3.75 4.969-10.22.5-3.4-.813-26.56-7.375-23.19-6.875-30.75-9.656-4.94 3.031-2.87 2.407-3.88 2.593-7.31 4.375-1.63.875-4.25-1.281-5.4-2.031-11.78-5.407-17.16-11.562-2.59-2.062-25.03-1.938-5.91 1.062-7.63.782-38.22 3.718-28.37-2.562-17.22 5.906-21.78-3.406-16.03-1.875-12.22-.625-24.97 6.688-8.81 4.562-6.13.969-8.06.219-13.34-2.594-11.78-3.625-13.1-5.094-6.4-4.313-4.85-4.374-.37-4.563.22-16.875 1.03-15.1562 1.18-5.0313 2.54-4.1875 3.93-9.75 1.19-3.3125.16-1.25-17.32-11.4063-6.24-.5937-7.63 4.1875-12.81 3.4688-5.32 1.375-25.96-10.7188.25.2812-17.69-9-4.03-3.625-11.16-10.7812-1.78-3.9062-2.25-6.1563-.06-3.5937-1.85-3.375-33.09-10.4376-15.44-3.4062-6.59-1.4375-34.35-3.6875-5.78.78125-8.75 1.34375-13.18 6.25-2.44 1.4062-49.56 37.6876-.91 2.7187-6.31 5.5625-3.22 2-2.35 2.4375-.34 2.3125 4.34 14.2188-2.37 23.8752 1.22 23.687.62 9.594 8.57 9.969.03.031 2.03 2.219 2.78 2.5 5.34 6.468 12.25 31.063-3.12 16.906-1.69 5.281-.56 3.407.31 3.25 3.41 17.593 2.44.532.15.031.97 3.75 1.41 6.063 1.34 7.624.81 5.75-.15 1.657-4.22 4.937-8.44 5.25" fill="none" stroke="#000" stroke-linecap="butt" stroke-linejoin="miter" stroke-width="11.4"/></svg>