<?xml version="1.0" standalone="no"?>
<!DOCTYPE svg PUBLIC "-//W3C//DTD SVG 20010904//EN"
 "http://www.w3.org/TR/2001/REC-SVG-20010904/DTD/svg10.dtd">
<svg version="1.0" xmlns="http://www.w3.org/2000/svg"
 width="1024.000000pt" height="1024.000000pt" viewBox="0 0 1024.000000 1024.000000"
 preserveAspectRatio="xMidYMid meet">
<metadata>
Created by potrace 1.11, written by Peter Selinger 2001-2013
</metadata>
<g transform="translate(0.000000,1024.000000) scale(0.100000,-0.100000)"
fill="#000000" stroke="none">
<path d="M3605 9659 c-820 -307 -1519 -570 -1555 -583 -271 -100 -960 -361
-981 -372 -14 -7 -31 -26 -38 -41 -9 -22 -11 -490 -8 -1928 2 -1045 6 -1913 9
-1930 3 -16 9 -59 12 -95 29 -263 112 -602 214 -875 74 -199 219 -506 316
-668 25 -43 46 -81 46 -83 0 -3 8 -17 19 -32 10 -15 61 -92 114 -172 259 -394
496 -680 877 -1060 196 -196 223 -221 380 -360 47 -41 87 -77 90 -80 8 -9 240
-201 295 -245 28 -22 52 -42 55 -45 13 -16 411 -309 555 -408 197 -136 478
-316 688 -439 140 -82 199 -115 362 -202 22 -11 51 -21 66 -21 52 0 516 266
884 507 218 143 535 367 645 456 9 6 42 32 75 57 71 53 60 45 255 205 85 70
160 133 165 139 6 6 44 40 85 76 41 35 100 87 130 115 69 63 441 434 496 495
341 378 618 754 829 1129 61 109 175 338 210 421 14 36 33 80 42 99 92 202
217 658 249 910 3 25 7 57 9 70 17 102 20 427 20 2088 l0 1881 -22 20 c-12 10
-91 45 -175 77 -84 31 -198 75 -253 95 -55 21 -145 55 -200 75 -55 20 -127 47
-160 60 -33 13 -105 40 -160 60 -55 21 -127 48 -160 60 -33 13 -123 47 -200
76 -217 81 -234 87 -677 253 -229 86 -427 160 -440 165 -21 9 -895 337 -978
367 -53 19 -140 52 -409 153 -134 50 -253 91 -265 90 -11 0 -691 -252 -1511
-560z m1646 305 c68 -26 153 -58 189 -71 36 -14 106 -40 155 -58 120 -45 92
-35 1120 -420 1097 -412 1025 -385 1055 -395 14 -5 300 -112 635 -238 l610
-230 0 -1818 c0 -1600 -4 -1963 -20 -2024 -2 -8 -6 -37 -10 -65 -3 -27 -8 -57
-10 -65 -2 -8 -6 -31 -9 -50 -32 -204 -135 -549 -231 -775 -297 -698 -798
-1373 -1500 -2021 -174 -161 -293 -263 -525 -451 -239 -194 -712 -528 -1005
-711 -82 -51 -277 -168 -320 -193 -178 -101 -250 -139 -262 -139 -27 0 -409
217 -608 345 -129 83 -411 269 -415 274 -3 3 -34 26 -70 50 -65 45 -348 253
-385 284 -11 9 -60 48 -110 87 -49 39 -99 79 -110 88 -11 9 -45 37 -75 62 -30
25 -60 49 -66 55 -9 8 -70 61 -158 138 -247 216 -578 555 -801 822 -605 725
-979 1496 -1071 2210 -3 28 -8 59 -10 70 -16 81 -19 391 -19 2004 l0 1823 410
154 c226 85 439 165 475 178 84 31 124 46 750 281 289 109 536 201 550 206 14
4 401 150 860 323 459 173 840 315 846 315 6 1 66 -20 135 -45z"/>
<path d="M4009 8286 c-2 -2 -33 -6 -69 -10 -408 -37 -862 -211 -1210 -465
-265 -192 -501 -448 -671 -726 -56 -90 -163 -299 -187 -365 -63 -167 -115
-342 -137 -455 -10 -57 -34 -220 -40 -275 -6 -63 -6 -390 0 -435 2 -16 7 -57
11 -90 3 -33 8 -67 9 -75 1 -8 6 -35 10 -60 12 -71 13 -77 40 -184 48 -188
133 -411 208 -546 17 -30 41 -75 55 -100 14 -25 58 -94 100 -155 375 -551 955
-931 1615 -1057 l117 -23 0 -575 c0 -316 4 -580 8 -586 14 -22 53 -27 73 -8
18 16 19 37 19 589 l0 572 28 -4 c15 -2 263 -6 552 -7 l525 -2 5 -870 c3 -478
8 -874 12 -880 13 -19 46 -23 67 -7 21 14 21 16 21 886 l0 872 549 0 c302 0
553 -4 557 -8 5 -4 8 -259 9 -566 0 -458 2 -561 14 -574 17 -21 40 -21 66 -1
20 15 20 27 20 582 l0 567 320 0 c347 0 419 4 568 36 453 95 848 387 1078 796
70 126 139 308 165 438 8 42 23 132 29 175 6 52 7 280 1 325 -3 17 -7 50 -10
75 -27 212 -120 459 -245 650 -57 87 -68 102 -136 179 -145 167 -337 310 -543
407 -82 39 -257 99 -314 108 -19 3 -41 8 -49 10 -49 17 -215 29 -424 30 l-189
1 -12 35 c-7 19 -27 76 -45 125 -74 211 -205 452 -352 647 -317 423 -773 744
-1276 898 -57 17 -111 33 -120 35 -9 2 -47 10 -86 18 -68 15 -98 20 -180 32
-22 4 -51 9 -65 12 -29 6 -485 15 -491 9z m491 -211 c613 -78 1199 -419 1564
-909 175 -236 288 -457 370 -729 31 -102 61 -155 88 -158 7 -1 110 -3 228 -4
209 -2 397 -11 423 -20 6 -2 23 -6 37 -9 60 -10 165 -40 237 -67 490 -188 848
-654 897 -1169 15 -146 2 -359 -28 -475 -126 -491 -471 -867 -938 -1019 -183
-60 -262 -69 -645 -71 -234 -1 -343 2 -346 9 -2 6 -3 117 -3 246 l1 234 77 2
c116 3 203 36 283 106 122 107 171 290 119 444 -25 76 -1404 2372 -1451 2415
-57 54 -92 75 -163 99 -156 52 -337 4 -442 -119 -20 -23 -109 -164 -198 -314
-89 -150 -173 -288 -185 -307 -21 -33 -76 -124 -135 -226 -14 -24 -218 -366
-455 -761 -236 -394 -435 -727 -441 -739 -38 -72 -50 -194 -28 -276 51 -196
203 -315 411 -322 l78 -2 3 -233 2 -232 -37 6 c-278 48 -602 171 -838 320
-301 190 -572 462 -757 761 -165 266 -297 646 -323 929 -4 39 -9 84 -11 100
-6 39 -5 343 0 375 2 14 7 54 11 90 4 36 8 72 10 80 2 8 6 34 9 57 12 73 64
266 95 353 94 256 230 498 391 695 69 84 214 235 287 297 124 106 316 234 461
307 202 102 469 190 652 216 24 4 47 8 50 10 3 2 44 7 90 10 47 4 87 9 90 12
6 5 403 -5 460 -12z m738 -1288 c44 -31 73 -71 176 -247 37 -63 132 -223 211
-355 80 -132 150 -249 156 -260 7 -11 104 -173 217 -360 113 -187 213 -353
222 -370 10 -16 49 -83 89 -149 39 -65 71 -121 71 -124 0 -3 11 -20 25 -38 14
-18 25 -35 25 -38 0 -3 52 -92 116 -198 64 -106 122 -209 129 -228 29 -82 -8
-192 -82 -242 -48 -33 -68 -39 -143 -42 -48 -3 -60 0 -64 13 -2 9 -4 102 -3
206 0 105 -2 202 -6 216 -8 32 -45 42 -73 22 -18 -13 -19 -31 -20 -231 -1
-119 -2 -219 -3 -222 -1 -3 -522 -5 -1158 -5 l-1158 0 -3 219 c-1 129 -7 224
-13 232 -17 20 -57 23 -74 4 -12 -14 -15 -53 -15 -237 l0 -220 -72 3 c-45 3
-87 11 -114 24 -91 44 -141 163 -109 260 6 19 237 412 405 690 29 47 106 178
115 193 6 10 109 182 230 383 121 201 227 378 235 392 25 45 271 454 295 492
12 19 37 62 56 94 69 119 125 157 230 153 54 -2 74 -8 107 -30z m-168 -3097
l0 -246 -517 3 c-285 1 -534 4 -553 5 l-35 3 -3 230 c-1 126 -1 234 2 240 2 7
187 10 555 10 l551 0 0 -245z m1206 237 c12 -12 11 -467 -1 -476 -5 -4 -255
-7 -555 -7 l-545 1 -3 239 c-1 141 1 242 7 245 14 9 1088 7 1097 -2z"/>
<path d="M5080 6044 c-8 -3 -25 -19 -37 -37 -23 -33 -23 -37 -23 -376 0 -388
1 -391 73 -413 33 -10 44 -9 72 6 18 10 38 29 44 42 15 34 15 693 0 727 -19
43 -76 65 -129 51z"/>
<path d="M5053 4746 c-39 -34 -40 -103 -1 -142 39 -40 102 -38 140 5 39 43 38
92 -1 132 -39 38 -97 40 -138 5z"/>
</g>
</svg>
